<?xml version="1.0" encoding="iso-8859-1"?>
<!-- Generator: Adobe Illustrator 16.0.0, SVG Export Plug-In . SVG Version: 6.00 Build 0)  -->
<!DOCTYPE svg PUBLIC "-//W3C//DTD SVG 1.1//EN" "http://www.w3.org/Graphics/SVG/1.1/DTD/svg11.dtd">
<svg version="1.1" id="Capa_1" xmlns="http://www.w3.org/2000/svg" xmlns:xlink="http://www.w3.org/1999/xlink" x="0px" y="0px"
	 width="297.565px" height="297.565px" viewBox="0 0 297.565 297.565" style="enable-background:new 0 0 297.565 297.565;"
	 xml:space="preserve">
<g>
	<g>
		<path style="fill:#030303;" d="M29.686,58.527h32.241V26.295H29.686V58.527z M41.396,38.005h8.82v8.811h-8.82V38.005z"/>
		<path style="fill:#030303;" d="M66.329,58.527h32.238V26.295H66.329V58.527z M78.04,38.005h8.817v8.811H78.04V38.005z"/>
		<path style="fill:#030303;" d="M102.976,58.527h32.233V26.295h-32.233V58.527z M114.687,38.005h8.812v8.811h-8.812V38.005z"/>
		<path style="fill:#030303;" d="M0,0.006v84.812V297.56h297.565V84.818V0.006H0z M11.711,11.717h274.145v61.392H11.711V11.717z
			 M285.855,285.861H11.711V84.818h274.145V285.861z"/>
	</g>
</g>
<g>
</g>
<g>
</g>
<g>
</g>
<g>
</g>
<g>
</g>
<g>
</g>
<g>
</g>
<g>
</g>
<g>
</g>
<g>
</g>
<g>
</g>
<g>
</g>
<g>
</g>
<g>
</g>
<g>
</g>
</svg>
